<?xml version="1.0" encoding="UTF-8"?>
<svg version="1.1" viewBox="0 0 900 900" width="225" height="225" xmlns="http://www.w3.org/2000/svg">
<path transform="translate(0)" d="m0 0h900v900h-900z" fill="#100E0E"/>
<path transform="translate(445,289)" d="m0 0h10l26 3 19 5 16 6 19 10 17 12 12 10v2l4 2 7 8 10 13 7 11 8 15 7 18 5 21 2 14v31l-4 23-9 27-10 19-8 12-14 17-8 8-14 11-15 10-19 9-13 5-5-1-4-5-1-2-1-55-3-12-5-8v-3l17-3 13-4 16-8 11-10 8-14 5-15 2-15v-17l-2-12-5-13-7-10-2-4 2-5 1-15-2-13-3-9-15 3-13 5-13 8-1 1-9-1-10-2-14-1h-20l-19 2-8 2-7-1-11-7-12-5-11-3-7-1-3 10-1 4v23l2 4-1 5-6 7-6 13-2 7-1 8v18l3 18 5 13 6 10 8 9 11 7 13 6 17 4 8 1 1 3-6 10-3 11-10 3-12 1-7-1 2 3-1 4-5-1-1-1v-7l-10-9-7-9-6-7-10-5-9-1-3 1 2 4 11 9 6 8 8 16 5 6 10 6 7 2h29l1 1v32l-5 6-4 1-17-6-16-8-15-10-13-11-8-7-9-10-11-15-8-14-8-17-6-20-4-21-1-11v-16l2-17 4-18 6-18 8-17 9-14 10-13 9-10 8-8 13-10 14-9 16-8 15-6 20-5z" fill="#848384"/>
<path transform="translate(344,524)" d="m0 0h4l2 3 5 2 2 3-1 2-5-2-7-6z" fill="#848384"/>
<path transform="translate(403,552)" d="m0 0 5 1-1 6-4 1-2-2v-5z" fill="#848384"/>
<path transform="translate(365,544)" d="m0 0 4 2 3 3-1 3-6-1-1-4z" fill="#848384"/>
<path transform="translate(392,554)" d="m0 0 4 1-1 5h-6l-1-4z" fill="#848384"/>
<path transform="translate(356,536)" d="m0 0h4l4 5-1 3-5-2-2-2z" fill="#848384"/>
</svg>
