<?xml version="1.0" encoding="UTF-8"?>
<svg version="1.1" viewBox="0 0 1024 1024" width="1024" height="1024" xmlns="http://www.w3.org/2000/svg">
<path transform="translate(0)" d="m0 0h1024v1024h-1024z" fill="#FAFBFC"/>
<path transform="translate(266,197)" d="m0 0h496l15 4 11 5 10 6 11 10 11 16 7 16 2 9 1 9v335l-1 158-5 17-9 17-12 13-14 10-16 7-15 3h-493l-16-3-16-7-13-9-9-9-7-10-7-14-4-15-1-18v-473l2-13 7-18 5-3 7-9 3-4h2l1-3h2l1-3h2v-2l6-5h2l1-2 4-4 10-6 9-3z" fill="#1E99DD"/>
<path transform="translate(826,267)" d="m0 0 3 1 1 4v335l-1 158-5 17-9 17-12 13-14 10-16 7-15 3h-493l-16-3-16-7-13-9-9-9-7-10-7-14-4-15v-88h2v14l4 5 1 5 1 8 3 5 2 8 2-2 2 4 3-1 2 12 5 2 3-2h3 6l4 2 2 3 4 2 2-5h-2l1-4h2l1 2h2v-2l7-1 1 1 1-4h4l4 5h4l1-7v-2l5-1v-5l4 1 1-3 2 1-1-6 2-1v-5h2v-7l1-5-1-6 2-7 1-9 2-5v-3-6l1-3 2-15 2-6h2l1 81 3 5 8 2 32 1h12l23-1 9-2 3-2 1-284 2-4 2 7 2 5-1 3 2 9 6 20 2 13 2 30 2 20 5 37 3 25 3 10 4 6 2 4 3-4 4-16 5-24 2-10 2 3 1 149 4 4 6 1 31 1h15l21-1 8-1 3-3 1-4v-157l1-12 1-3h2v-5l8-11 2-3h2v-2l10-7 16-6 7-1 13-1 12 2 9 3v2l6 2 5 5 1 3h2l3 4 1 6 5 13 2 11 2 27 2 43-1 54v34l1 5 11 2h68l8-1 2-8v-125l-1-25-3-31-5-26v-7l2 1 7 10v2l3 3 2 6 3 4 2 3 1 4 6 10 8 16 10 19 8 20 6 16 7 18 7 14v2h2l6 11 2 2 4-5 4-16 3-28 3-34 1-14v-9l2-9-1-5v-3l1-7v-18-4l1-11-1-18 1-5-1-6 1-4-1-3 1-3-1-8 1-16v-24l1-5v-13l1-9v-23l1-8-1-4 1-4-1-4 2-10v-3l-1-9 1-5v-21l-1-4 1-4v-15z" fill="#175BA8"/>
<path transform="translate(794,217)" d="m0 0 1 2 6 2 5 5 4 2 4 1 7 11 6 14 2 9v5l-1 1v18l-1 2 1 9v19l-1 2 1 8v3l-1 10v8 4l-1 15v22l-1 9v8l-1 5v30l-1 10 1 8-1 4 1 2-1 6 1 4-1 9 1 17v4l-1 4 1 7v12l-1 5v15l-2 7v9l-1 3 2 1v2h-2l-1 19-3 32-3 24-4 12-4 4-3-3-1-3-2-2-2-6h-2l-6-12-6-14-7-18-7-19-12-25-9-16-5-10-2-2-1-4-3-4-5-10-2-6-2-1-4-5-1-2 6 33 3 32 1 35v114l-3 8-8 2h-5l1-2 9-3 2-6 1-49v-62l-1-31v-9l-1-11-3-27-1-7-2-7-1-7-3-8-4-10-8-17v-2l-3-1v-3h-2l-1-4h-2l-7-8-9-8-11-7-18-8-14-3-8-1h-20l-24 4-15 5-9 5h-3v2l-9 6-10 9-4 1-4-4-2-13v-13l-21-2h-48l-19 1 2-1-3-3h-2v-2l-7-1-8-9v-3l-3-3-6-11-1-4-3-8-2-4v-4h-2l-8-16-5-8v-3h-3v5h-1v-11l-2-11-1-7-1-2h2l1-2 1 2 7 1 3 3 7 2 4-1 2-4 1 2 5-2 4 1 5-1 5 1 3-3h2l4-1 2-3h2l1-2 5 1 1-5 2 2 4-2 4 1 5-2h2l4-2 8-2 1-2h3l4-1 4-2 3-1 2-2v3l4-1h2v-5l3 2 4-2 4-6 3 1 2-2h8l-1-1 1-4 5-1 1-2h3l3 1 2-2v-5h2l1-2 7-3 4-1 2 1 1-2 2-3 3 1 4-4 5-1 8-4h10l5-4h4l1-2 3-3 1 2 3-2h1l3-3 10-2 4-2 4 4-2-5 4-2 5 4h3v-3l3-1h2l-1-5 3-1 1 4 5-1 1-4 3 1 2-2 1 2 10 1 6-2 2 1 2-2h7l2-2h2l3 3h4v-2l3 1 2-3 6-1 5 2h3l7-2h3l5-1 5 1 7-1h4 3l7 2 5-1 9 2 8 4 5 3 2 2 1 2 5 1 6 7 3-1 1-4-2-4-2-1-1-3-5-5-2-1zm-293 75 2 2h-2z" fill="#33C1EE"/>
<path transform="translate(462,421)" d="m0 0h48l15 1 6 2 2 23 2 5 3 1 5-3 13-11 4-1v-2l12-6 15-5 26-4h18l17 3 10 3 17 8 13 10 10 10v2h2l1 4h2l1 3 3 3 8 17 5 12 2 6 2 13 1 4 2 14 2 19 1 17v12l1 31v52l-1 50-2 5-10 3-1 1h-63l-11-3-2-5v-34l1-60-3-51-2-19-4-14-3-6-1-5-1-3h-2l-5-6-7-4-9-4-13-2-14 1-17 5-10 6-4 2v2h-2l-2 4-4 5-3 5-1 5h-2l-1 24v148l-2 5-3 3-8 1-30 1h-16l-21-1-8-2-3-4v-291l2-3 4-1z" fill="#FAFBFC"/>
<path transform="translate(266,197)" d="m0 0h496l15 4 11 5 10 6 11 10 3 4-2 4h-2l-7-7-2-1v-2l-5-2-1 4h4l4 6v3l3 1 2 5-2 6-5-3-4-5-8-4-2-2-4-1-4-4h-5l-7-2-4-1h-3l-4-1h-3l-5 1h-4l-2-1-1 2-5-1h-9l-2 2-6-1h-3-5l-4 4-5-3v2h-2l-1 2-5-3h-2l-2 4-7-2-2 2h-2l-1-2-3 3h-8v-3h-3l-1 2-3-1-2-2 1 5-3 2-3-2-2 1-1-3-1 3 1 2-2 4-2-4-2 5h-3v-2l-4-2h-4l1 5h-4l-2-2-2 1-2-1-1 2h-4l-1 2-4 1-1 3-2-2-5 3-5 1-1 2h-2l-4 3-9-1-1 2-6 1-1 2-6 2-3 3-2-1-4 4-7 1-8 5-1 5-3 3-2-2-2 2-1-2-5 3v3l-1 2h-6l-2 2-1-1-2 2-2-2-4 7-5 1v2h-2l-1 2h-3-3v-2l-4 2-3 2-4 2-4-1-4 3h-2l-1 2v-2l-5 2-2 3-1-2-2 2v-2l-4 2-5-1-4 3-2 2-4-2-1 3-2-1-2 4-3 1-4 1-4 2h-3l-4-1-2 2-1-2-2 1v-2l-4 2-2 2-7 2-7-2-2-3-7-1h-2v6l2 6 1 11-2 11-3 9-2 3h-2l-1 4-6 5-4 4-10 5-10 3h-16l-12-4-11-7v-2l-4-2-6-9-4-9-1-4v-17l2-7-1-5-4 1-10 4h-4l-6 1-2-2-4 2-4-2-4 1-3-3-2 2-4-1-1 2-5-1-4-2-1 2h-5-3l-4-1h-3l-4-1-4 3-6-5-5-6v-3l-2-2-1-5-3-9-2-13-3-10-3 1v-7l5-15 4-8 4-2 7-9 3-4h2l1-3h2l1-3h2v-2l6-5h2l1-2 4-4 10-6 9-3zm235 95v2l2-1z" fill="#47D5F7"/>
<path transform="translate(821,255)" d="m0 0 6 1 2 7v5l-1 1v18l-1 2 1 9v19l-1 2 1 8v3l-1 10v8 4l-1 15v22l-1 9v8l-1 5v30l-1 10 1 8-1 4 1 2-1 6 1 4-1 9 1 17v4l-1 4 1 7v12l-1 5v15l-2 7v9l-1 3 2 1v2h-2l-1 19-3 32-3 24-4 12-4 4-3-3-1-3-2-2-2-6h-2l-6-12-6-14-7-18-7-19-12-25-9-16-5-10-2-2-1-4-3-4-5-10-2-6-2-1-4-5-1-2 6 33 3 32 1 35v114l-3 8-8 2h-5l1-2 9-3 2-6 1-49v-62l-1-31v-9l-1-11-3-27-1-7-2-7-1-7-3-8-4-10-8-17v-2l-3-1v-3h-2l-1-4h-2l-7-8-9-8-11-7-18-8-14-3-8-1h-20l-24 4-15 5-9 5h-3v2l-9 6-10 9-4 1-4-4-2-13-1-14-4-2v-2l7-3 10-1h5l2-1 10 2 2 4h3l1 2 4-3h2l1-3h2l1-2 5-1 2 1 1-2 5-4 3 2-1-4h-3l-1-2 4-1 5-6 3 2v-2l4-2 2-2 1 1 2-4 3-1h2l1-2h2l2-3 6-2 4-4 14-6h3v-2l6-2h4l2-3 8 1 1-3 6-2h1l1-2h7l3-4h5l6-4h3l2 1 1-2h3l2-3 1-2h4l6-2h3l1-2 2 1 4-1 3-3 1 2 4-3 1-3 6 1 3-3 6-2-2-5 5-1 2-2 1 2h2v-2l5-1 2-5-1-3h5l-1 4 1 1 1 2 2-1 2 2 3 1 2-4 3-1 3 3 1-6 3 4 1-3 2 1 2-4 1 4 1-2-1 5-4 2v4l3-1 1-4h2l1-3h2l1-6 3-3v-3l2-2-1-5-1-2h2l2-11-1-3 1-2-1-4 2-5 1-9 2-1 3 1 3-4z" fill="#1E99DD"/>
<path transform="translate(319,421)" d="m0 0h47l16 1 6 2 1 3v291l-6 4-7 1-33 1h-12l-22-1-8-2-3-3v-292l2-3 4-1z" fill="#FAFBFC"/>
<path transform="translate(577,545)" d="m0 0h11l7 3 7 5v2l2 1 5 7 2 1v2h2l4 7-1 3 1 5h2l2 2v3l3 1 2 5 6 12 1 8 1 5 2 14v9l1 9v45l3 5 1 1 1 15 1 5 2 1-2 6-1 2 2 1 4 5 5 3 1 3 5 1 3 8 3 3 2 5 2 4 1 4 2 5 3 10 3 7 4 8 2 9-1 3-8 4-7 1-24 1h-30l-25-1-11-1-9-4-6-5-1-7-1-2 1-3-1-9-1-11v-6l1-2-2-1v-11l1-2-3-21-1-5v-39l-1-5v-48l-1-4v-5l-1-5v-13l-1-3 1-1v-15l2-12 5-11 1-4 7-6 4-3 2-3z" fill="#176DBC"/>
<path transform="translate(392,343)" d="m0 0h3l6 11 7 14v2h2l3 8 2 6 2 3 1 5 4 7v2l2 1 2 4 6 7 2 2 6 2v2l3-1 2 1v3h-2l-1 4-1 142-2 4-9 39-2 5-2 4-3-2-2-5-2-2-4-12-7-57-2-12-1-13-2-30-3-17-5-16-2-10 1-4-2-2-1-5-2 1-1-10-6-1-18-1h-45l-15 1-4 1-1 2-1 114h-1v-119h2l1-3 2-4 1-8-2-7-1-5v-3l1-6-2-1 2-6-1-5v-9l2-3h2l4 6 5 5v2l4 2 9 5 10 3h16l15-5 7-4 8-8 1-3h2l3-9 3-7z" fill="#1E99DD"/>
<path transform="translate(826,267)" d="m0 0 3 1 1 4v335l-1 26-1-2-2 1-1 9v10l-1 16-1 26-1 13-1 7v10l-1 17-1 12-2 6-2 5-3 8-2 3h-2l-2 4-5 5-4 3-6 1-4-4-3-7v-3h-2l-2-11-1-3 3-1-3-2-2-8 2-8h-2l-2-3-2-4 1-4-3-6h2l-1-5-5-4h2l1-3h1l-3-7-3-6v-3-7l-2-7-3-10v-8l-3-12-2-10-1-10-2-10-3-18-2-13-1-5-2-12-2-14-4-10-1-9-3-6v-4l-2-2-2-6-2-4-2 2-3-14v-7l2 1 7 10v2l3 3 2 6 3 4 2 3 1 4 6 10 8 16 10 19 8 20 6 16 7 18 7 14v2h2l6 11 2 2 4-5 4-16 3-28 3-34 1-14v-9l2-9-1-5v-3l1-7v-18-4l1-11-1-18 1-5-1-6 1-4-1-3 1-3-1-8 1-16v-24l1-5v-13l1-9v-23l1-8-1-4 1-4-1-4 2-10v-3l-1-9 1-5v-21l-1-4 1-4v-15z" fill="#1870BE"/>
<path transform="translate(194,271)" d="m0 0h2l4 10 2 15 2 4v3l2 1 2 7 4 8 3 1 3 3 4-3 8 1 5 2 1-1h5 4 9l1-2 1 2 3-2 3 3h2l2-3 1 3 2 1 2-2h3l2 2 7-1 5-1 3-1 2-2 5 1 1-2 2 2-1 7-1 4v17l4 11-2 7v11 3 10l1 2-1 7 2 1-1 5 2 1v10h-2l-1 5-5 2-9 2-9 5-7 2-3-1-1 2-5-1-4 2-5 1h-4l-3-1-2 3-4 1-5-2-3-1h-1l-4 1-5-3-1 2-4-1-3-1-2-6-1-5-4-2-3-4-5-5v-2h2v-5l-1-5-2-5-1-4 1-3-2-1v-12l-2-4h2v-2l-2-2v-2l1-1-3 2v-91z" fill="#34C1EE"/>
<path transform="translate(390,430)" d="m0 0 2 3 2 6 1 5-1 1 2 9 6 20 2 13 2 30 2 20 5 37 3 25 3 10 4 6 2 4 3-4 4-16 5-24 2-10 2 3 1 149 4 5h-3l3 8 6 6 3 7 2 4 1 7 2 1 1 11 1 7 1 5 1 7 2 7 2 10 1 2-2 5-10 4h-25l-15-2-7-4-3-6v-6l1-2-2-1 1-1-1-9v-15-3l1-10 1-5 1-9 1-7-1-9-1-5v-12l-1-5 1-9v-13l-1-11-1-14v-10l-1-7-1-13-1-18-2-18v-13l-1-7v-11l-2-10v-4-6l-1-4 1-3-1-7v-14l-1-5v-14l-1-16-1-7-1-5-2-8-1 9h-1v-30z" fill="#176EBC"/>
<path transform="translate(295,634)" d="m0 0h2l1 81 3 5 2 2v6l2 5 2 6 2 7 1 4v4l2 13v5l1 3v16l1 5v8l-2 4-9 4-11 1h-11l-11-1h-9l-12-3-16-8-4-3-7-5v-2l-4-2-2-3-3-1-2-4-7-6-2-4-3-2v-2l-6-2v-88h2v14l4 5 1 5 1 8 3 5 2 8 2-2 2 4 3-1 2 12 5 2 3-2h3 6l4 2 2 3 4 2 2-5h-2l1-4h2l1 2h2v-2l7-1 1 1 1-4h4l4 5h4l1-7v-2l5-1v-5l4 1 1-3 2 1-1-6 2-1v-5h2v-7l1-5-1-6 2-7 1-9 2-5v-3-6l1-3 2-15z" fill="#176FBD"/>
<path transform="translate(823,771)" d="m0 0 2 4-5 12-2 7-8 11-8 8-13 9-16 7-15 3h-493l-16-3-16-7-13-9-9-9-7-10-5-10v-8l2-1 3 4v2h2v2l2 1 4 3v2l4 2 2 4h2v2l8 4v2l6 2v2l5 1 13 5 16 3h47l11-1h3l7-1 5 1h33l5 1 2-1 4 1 3-1 5 1 3-1 1 1 23 1h74l7-1 2 1 9-1 5 1h45l8 1 3-1 21 1h78l14-1h42l3-1 2 1 3-1h4l5 1 9-1h8l12-3 11-5h3l1-2 6-2v-2l6-4h2v-2h2v-2h2v-2l5-5 6-7z" fill="#154684"/>
<path transform="translate(266,197)" d="m0 0h481v1l-32 1h-68l-25 1h-8l-5 1h-4-2l-1 2 4 1 1-2 5 2 5-1 5 1 2-1 6 1 4-1h4 3v2l7-1h17l2 2 6 1h12l2 3-5 2h-5-3-10l-7 1-6 1h-23l-10 1h-28l-50 1h-18l-56 1h-90l-32 1h-79l-14 3-10 4-9 5h-2l-1 2-5 3-5 5-6 4h-4v2l-5 5-5 8h-2l-1 2-1-3 6-15 5-3 7-9 3-4h2l1-3h2l1-3h2v-2l6-5h2l1-2 4-4 10-6 9-3z" fill="#7BF0FE"/>
<path transform="translate(336,294)" d="m0 0h18l13 5 9 6 8 9 6 12 2 11-1 12-4 12-2 3h-2l-1 4-6 5-4 4-10 5-10 3h-16l-12-4-11-7v-2l-4-2-6-9-4-9-1-4v-17l4-11 6-10 9-8 12-6z" fill="#FAFBFC"/>
<path transform="translate(714,485)" d="m0 0 2 1 5 14 3 15 1 4 2 14 2 19 1 17v12l1 31v52l-1 50-2 5-10 3-1 1h-63l-11-3-2-5v-34l1-60-3-51-2-19-4-14-3-6-1-5-1-3h-2l-5-6-7-4-9-4-13-2-14 1-17 5-10 6-4 2v2h-2l-2 4-4 5-3 5-1 5h-2l-1 24v148l-2 5-3 3-8 1-30 1h-16l-21-1-6-1v-1h67l6-2 5-5 2-7v-11l1-3-1-9v-34l-1-2v-3-52l-1-28v-11l2-10 6-12 7-10 1-2h2l4-8 2-3 2-2h2l3-3 3-1 3-4 6-1 5-3 7-1 4-2h4l1-2h2v2l7-1 4 1 9 1 2 2 2-1 1 2 3-2 2 3 5 2h3l2 3 2 2h-2l4 5 3 5v2h2l2 10v6l1 4 1 14 1 11 1 2-1 8 1 3-1 1 1 14v3 46l-1 31v42l6 7 9 1h18l10-2 9-2 4-1 3 1 2-3 3-2v-2l2-1 1-3h2l2-6v-16-3-53-3-21l-1-2h2l-1-4v-3l1-5-1-2 1-10-1-5 2-1-1-13 2-7 2-2v-19l-1-11 1-10-4-15-2-5z" fill="#D0DDE4"/>
<path transform="translate(592,506)" d="m0 0 9 1 11 3 2 1v2l6 2 5 5 1 3h2l3 4 1 6 5 13 2 11 2 27v14h-2l-4-11-2-10-1-8-2-1-3-11-4-8-6-7-10-5v-2l-7-1-3-2-2 1v-2l-3 1-3-1h-5-4l-4 1-2-1-6 1-1 2-9 4h-3l-1 3-8 7-1 3h-2l-1 5-4 10-1 10v6 4l-1 9v36l1 5v33l1 1v18l-2 25-1 5v10l-1 5-3 9-4 2-2 2-4 2-1 3h-5l-2 1-2-1-1 2-3-1-1 2-2-1-1 2-8 1-1-2-4 1-6-1-2 1-5-1-2 1v-2h-8l-5-5-2-4-2-2v-3l-2-1-2-5-2-9 1-1h45l21-1 8-1 3-3 1-4v-157l1-12 1-3h2v-5l8-11 2-3h2v-2l10-7 16-6 7-1z" fill="#154784"/>
<path transform="translate(390,583)" d="m0 0 3 1v24l1 5v4 12l1 3v9l1 5v22l1 5v10l1 19-1 12-1 4 1 3v3 5 3 2l-1 8-5 2-1 5-3-1-2 4h-3l-1 3-9 2-4 2h-7-3l-6 1-3-2h-11l-5-1v-2l-6-1-2 1-1-3h-6l-4-5-3-7-3-6-2-11h47l23-1 9-2 3-2 1-91z" fill="#154684"/>
<path transform="translate(587,490)" d="m0 0h3v2l7-1 4 1 9 1 2 2 2-1 1 2 3-2 2 3 5 2h3l2 3 2 2h-2l4 5 3 5v2h2l2 10v6l1 4 1 14 1 11 1 2-1 8 1 3-1 1 1 11-2 4v16h-2l-2-36-2-19-4-14-3-6-1-5-1-3h-2l-5-6-7-4-9-4-13-2-14 1-17 5-10 6-4 2v2h-2l-2 4-4 5-3 5-1 5h-2l-1 24v148l-2 5-3 3-8 1-30 1h-16l-21-1-6-1v-1h67l6-2 5-5 2-7v-11l1-3-1-9v-34l-1-2v-3-52l-1-28v-11l2-10 6-12 7-10 1-2h2l4-8 2-3 2-2h2l3-3 3-1 3-4 6-1 5-3 7-1 4-2h4z" fill="#C8CCD8"/>
<path transform="translate(731,717)" d="m0 0h2v6l1 5-2 10h-2l-1 5h-2l-1 2-9 6h-2l-6 3-4 1v-2l-10 2-4-1h-3-10l-4-1-6-4-4-4v-2l-2-1-5-7-5-5v-6l1-1 52-1h17l8-1z" fill="#154784"/>
<path transform="translate(602,465)" d="m0 0 3 2 4-2v2l5 2v-2h10l2-2 2 4-4 4h-4l-6 2-1 2-5-1 2 2v3l-5 1-2 2 2-1 3 4h3 2l2 2h3l2 3 3 1 3 4-1 3-5-2-2-1-1-2-2 2-6-2v-2l-5 1-5-1h-3-3l-8-1-1 2h-4l-12 4-7 3-6 5-5 3-4 6-4 5h-2l-2 5-6 8-5 12-2 9h-3l-2-5 1-6 4-12 4-4 2-5 2-1-1-3 4-1 1-4-4-3h4l2-5-3-4 5-3 7-9 8-6 5-2 4-4h2l3-3 8-2 14-4h5l5-1z" fill="#EDE8ED"/>
<path transform="translate(388,357)" d="m0 0 2 1 4 14-1 9v4l-3 7-8 10-2 1-1 3h-2v2h-2l-1 2-4-1-5-1h-3l-5-2h-3l-1-2-5 1-14-4-2 1-1-2-8-2-5-3-3-5-3-9-1-8 5 2 10 6 10 3h16l15-5 7-4 8-8 1-3h2l2-5z" fill="#176EBD"/>
<path transform="translate(390,331)" d="m0 0h1l1 10-2 11-3 9-2 3h-2l-1 4-6 5-4 4-10 5-10 3h-16l-12-4-11-7v-2l-4-2-6-9-3-6 1-3 4 4 5 3 6 2 11 1h2v2h9 3l2-2 3 1 1-2 2 2 7-2 5-4 5-1 2-2 6-1 5-5 2-4 4-2 2-4z" fill="#EBE8ED"/>
<path transform="translate(714,485)" d="m0 0 2 1 5 14 3 15 1 4 2 14 2 19 1 17v12l1 31v52l-1 50-2 5-10 3-1 1h-63l-9-2v-2l21 2 30-1 17-2h4l1-2h4l2-4-1-2 1-8v-3-17-3-9-3-45-3-31l-1-4v-3-27l-2-19-1-6-1-11 1-10-4-15-2-5z" fill="#C9CCD7"/>
<path transform="translate(387,454)" d="m0 0h2v264l-6 4-7 1-32 1 1-2 7-1h20l6-2 6-8 1-62v-176l2-7-1-4h2z" fill="#61D7F4"/>
<path transform="translate(385,363)" d="m0 0 2 1-2 9-3 3-2 6h-2l-2 4-4 4-4 2-9 3h-5l-2 1-12-1-9-2-3-2-4-2-7-6-1-6 5 1 5 3 10 3h16l15-5 7-4 8-8 1-3z" fill="#1860AC"/>
<path transform="translate(721,502)" d="m0 0h2l5 23 3 27 1 13 1 34v114l-3 8-8 2h-5l1-2 9-3 2-6 1-49v-62l-1-31v-9l-1-11-3-27-1-7-2-7z" fill="#2FB2E8"/>
<path transform="translate(387,454)" d="m0 0h2l-1 193-3 2v-176l2-7-1-4h2z" fill="#CBD1DB"/>
<path transform="translate(734,600)" d="m0 0h1l1 19 2 16v13l1 24v19l-3 17-2 4h-1l-1-85 1-1z" fill="#154583"/>
<path transform="translate(622,498)" d="m0 0 3 1h3l2 3 2 2h-2l4 5 3 5v2h2l2 10v6l1 4 1 14 1 11 1 2-1 8 1 3-1 1 1 11-2 4v16h-2l-2-36-1-13v-11l1-4-2-7-4-18-4-6-1-4h-2l-2-6-1 3-2-5z" fill="#C9DCE5"/>
<path transform="translate(794,312)" d="m0 0 2 4 1-2-1 5-4 2v5l-3 2-3-2-5 3-1-3-3 3-5 1-3-5h-2l2 5-7 2h-3l-8 2v-4l-2-5 5-1 2-2 1 2h2v-2l5-1 2-5-1-3h5l-1 4 1 1 1 2 2-1 2 2 3 1 2-4 3-1 3 3 1-6 3 4 1-3 2 1zm-13 12 1 2z" fill="#2AAFE6"/>
<path transform="translate(660,224)" d="m0 0 2 2 10 1h4l1 5-5 1-1-2-3 1 3 3v2l-3 1-4-3-2 4-4 2-2-2-4 1-1-4-3 6h-2l-1 3-7-2-1-3h-2l-3 3-2-3v-4l2-4 4 2 5 2 1-3 3-1h2l-1-5 3-1 1 4 5-1 1-4 3 1z" fill="#3AC8F2"/>
<path transform="translate(526,668)" d="m0 0 2 2 1 3 2 2v43l-4 4-8 1-30 1h-16l-21-1-6-1v-1h67l6-2 5-5 2-7v-11l1-3-1-9z" fill="#CCD1DB"/>
<path transform="translate(283,715)" d="m0 0h2l-2 5-4 6-1 4h-2l-2 8-5 5h-3l-1 4-5 2-3-3-3 1 2-6 1-1-5 1-2 3-2-7-1 5h-3v-5h-2l1-4h2l1 2h2v-2l7-1 1 1 1-4h4l4 5h4l1-7v-2l5-1v-5l4 1 1-3 2 1zm-26 21 2 3v-3z" fill="#1A81CB"/>
<path transform="translate(385,429)" d="m0 0h2v2h2v23l-1 5-1 4 1 3-1 6h-2v-8l-1-5-3 2-3-3v-8l-2-2 4-12 3-1 1-4z" fill="#EDE8ED"/>
<path transform="translate(721,502)" d="m0 0h2l5 23 3 27 1 13 1 34v30l-3-1v-27l-1-31v-9l-1-11-3-27-1-7-2-7z" fill="#48D6F8"/>
<path transform="translate(531,572)" d="m0 0h1v142l-2-3v-95l-1-21v-22z" fill="#2FB2E8"/>
<path transform="translate(643,587)" d="m0 0 3 4-1 5v42l-1 31v41l-2 1v-123z" fill="#CFDDE4"/>
<path transform="translate(723,715)" d="m0 0 3 1-1 4-8 3h-63l-9-2v-2l21 2 30-1 17-2h4l1-2h4z" fill="#C3CCD8"/>
<path transform="translate(256,729)" d="m0 0h5l4 5h3l-1 4-4 1-2-2 1 6-4 4h-4l2-6 1-1-5 1-2 3-2-7-1 5h-3v-5h-2l1-4h2l1 2h2v-2l7-1 1 1zm1 7 2 3v-3z" fill="#1A80CA"/>
<path transform="translate(387,647)" d="m0 0h2v46l-3-3v-6l-1-1v-33z" fill="#ACD2E1"/>
<path transform="translate(731,664)" d="m0 0h1v53l-2 4-8 2h-5l1-2 9-3 2-6 1-47z" fill="#46D1F5"/>
<path transform="translate(660,224)" d="m0 0 2 2 10 1h4l1 5-5 1-1-2-3 1 3 3v2l-3 1-4-3-2 4-4 2 1-4 2-1-1-2-3-3-1-6 3 1z" fill="#3DCBF3"/>
<path transform="translate(603,199)" d="m0 0h5 3 24v3l-2 1-1 2h-3l-6-1h-3-7l-2 1-9-2z" fill="#51DBF9"/>
<path transform="translate(193,677)" d="m0 0h2v14l4 5 1 5 1 7-4 4-3 1v-5l-1-1z" fill="#197BC7"/>
<path transform="translate(516,720)" d="m0 0v3l-27 1h-16l-21-1-6-1v-1h67z" fill="#DDDCE3"/>
<path transform="translate(525,551)" d="m0 0h1l1 21 1 39v5h-3v-23l-1-28v-11z" fill="#D0DDE4"/>
<path transform="translate(794,312)" d="m0 0 2 4 1-2-1 5-4 2v5l-3 2-3-2-5 3v-3h2l-2-3-3-1 2-4 3-1 3 3 1-6 3 4 1-3 2 1z" fill="#26A8E3"/>
<path transform="translate(641,681)" d="m0 0h1v30h2l6 7 27 2v1l-12 1-20-2h-2l-2-5z" fill="#8DDAEE"/>
<path transform="translate(755,322)" d="m0 0 4 2v-2l3 1v3l2 2 2-3 1 4h-2l-1 2h-3l-7 2-3 1v-4l-2-5 5-1z" fill="#26A8E3"/>
<path transform="translate(803,307)" d="m0 0 3 1-3 4-1 5-3 3-1 5-2-3-1 4-3-1-1-6 3-2h3l-3-2 1-4h2v-2h5z" fill="#2BB2E8"/>
<path transform="translate(272,732)" d="m0 0 3 3-2 3zm-3 2 3 2-1 4-2 3h-3l-1 4-5 2-1-4 2-3-1-1v-5l5 2z" fill="#1879C5"/>
<path transform="translate(592,506)" d="m0 0 9 1 11 3 2 1v2l6 2 5 5 1 3h2l3 4-2 2-4-5v-2l-4-2-9-6-11-4-7-1-14-1v-1z" fill="#1E99DD"/>
<path transform="translate(639,558)" d="m0 0 2 2 1 14 2 1 1 11-2 4v16h-2l-2-36zm2 17 1 2z" fill="#95D9EC"/>
<path transform="translate(690,222)" d="m0 0h3l2 5h-3l-2 3-1-6zm-9 2h7l1 6-8 4h-2l-3 2v-3l2-3v-5l2 1z" fill="#3CCAF2"/>
<path transform="translate(387,454)" d="m0 0h2v19l-2 7v32h-2v-39l2-7-1-4h2z" fill="#D2DFE5"/>
<path transform="translate(302,719)" d="m0 0 28 1 5 1 2 1v2l-28-1-8-2z" fill="#E7E3E9"/>
<path transform="translate(714,485)" d="m0 0 2 1 5 14 1 5 1 4v11l-1 9h-2l-1-11 1-10-4-15-2-5z" fill="#CCD2DC"/>
<path transform="translate(799,228)" d="m0 0h2v3l3 1 2 5-2 6-5-3-3-4 1-5h2z" fill="#41CFF4"/>
<path transform="translate(387,647)" d="m0 0h2v13l-2 7-1 6h-1v-23z" fill="#BAD4E1"/>
<path transform="translate(530,427)" d="m0 0h1l2 21-2 4-4-13 2-10z" fill="#EDE9EE"/>
<path transform="translate(373,416)" d="m0 0 7 3 1 2-3 1h-14l-2-2 4-3z" fill="#2181C8"/>
<path transform="translate(812,228)" d="m0 0 5 5 8 16 2 7-3-3v-2l-2-1-3-5-2-7-2-5-2-1z" fill="#48D6F7"/>
<path transform="translate(526,668)" d="m0 0 2 2 1 3 2 2v12h-3v-3l-2-2z" fill="#CCD3DC"/>
<path transform="translate(373,720)" d="m0 0h6l-3 3-32 1 1-2 7-1h20z" fill="#D2D4DD"/>
<path transform="translate(210,424)" d="m0 0h2l2 7h2l1 4h-2l-2 2-5-2-1-3 3-3-1-3z" fill="#27AAE4"/>
<path transform="translate(794,312)" d="m0 0 2 4 1-2-1 5-4 2v5l-3-1-2-5-1-4 2-2 2 4 1-3 2 1z" fill="#22A1E0"/>
<path transform="translate(530,546)" d="m0 0 2 3v22h-3l1-4-1-5v-7-3z" fill="#42BFEC"/>
<path transform="translate(234,736)" d="m0 0 2 1 2 3 2 1-1 5-1-4-5 2-2 1-2-1-1 2-1-2 4-5z" fill="#1A81CB"/>
<path transform="translate(759,322)" d="m0 0 3 1v3l2 2 2-3 1 4h-2l-1 2h-3l-3 1-1-3h-2l2-5h2z" fill="#27AAE4"/>
<path transform="translate(648,226)" d="m0 0 2 3v5h-2l2 4-3 2-4-3-1-4 3-1h2l-1-5zm3 3 1 2-2-1z" fill="#39C7F1"/>
<path transform="translate(350,385)" d="m0 0h7v3l-7 2-3-1h-3l-6-1v-2z" fill="#154989"/>
<path transform="translate(243,733)" d="m0 0h2l1 2h2v-2l5 1 1 3h-2l-1 2v-2h-3l-1 5h-3v-5h-2z" fill="#1A82CC"/>
<path transform="translate(388,704)" d="m0 0h1v14l-6 4h-5l5-5 4-1z" fill="#7ECEE8"/>
<path transform="translate(525,617)" d="m0 0 3 1v26h-3z" fill="#D2DFE6"/>
<path transform="translate(387,450)" d="m0 0h2l-1 9-1 4 1 3-1 6h-2l-1-17 3-4z" fill="#E7E4EA"/>
<path transform="translate(388,694)" d="m0 0h1v10l-1 10-2 2-1-3 1-15z" fill="#B6CDDB"/>
<path transform="translate(797,314)" d="m0 0 3 3-1 4-2 4-1-2-1 3-3-1-1-6 3-2h3z" fill="#2DB6EA"/>
<path transform="translate(603,199)" d="m0 0h5 3l4 1 1 4-5 1-9-2z" fill="#4FDAF9"/>
<path transform="translate(253,732)" d="m0 0h2l3 3 1-2-1 6-6 2-2 3-1-6 3-2z" fill="#1C8CD3"/>
<path transform="translate(529,713)" d="m0 0h2v5l-4 4-11 1 1-2 11-4z" fill="#8ECEE4"/>
<path transform="translate(630,529)" d="m0 0 4 2 4 13 1 2-1 5h-1l-4-14-3-6z" fill="#3CC0EE"/>
<path transform="translate(622,498)" d="m0 0 3 1h3l2 3 2 2h-2v4l-4-1-2-6-1 3-2-5z" fill="#D7DEE5"/>
<path transform="translate(527,709)" d="m0 0 1 4 1 5-6 2-5 1 3-4 3-3 1-4z" fill="#CFDCE3"/>
<path transform="translate(643,587)" d="m0 0 3 4-1 5v9h-3v-17z" fill="#D1DEE5"/>
<path transform="translate(721,509)" d="m0 0h1l1 11-1 9h-2l-1-11 1-8z" fill="#D2DFE6"/>
<path transform="translate(676,207)" d="m0 0h9l2 3-5 2h-5l-3-4z" fill="#70EBFD"/>
<path transform="translate(645,719)" d="m0 0 20 2 1 2h-12l-9-2z" fill="#C6CCD7"/>
<path transform="translate(222,735)" d="m0 0 3 1 3-1v7h-3l-2-1-3 1z" fill="#1A81CB"/>
<path transform="translate(509,285)" d="m0 0 2 3 2-2h2l-1 5-6 2-4-4 1-3 3 2z" fill="#41CFF5"/>
<path transform="translate(642,562)" d="m0 0 3 1-1 8 1 3-3 1-1-5-1-6z" fill="#CEDEE5"/>
<path transform="translate(639,558)" d="m0 0 2 2 1 17-1 7h-1l-1-14z" fill="#3CC5F0"/>
<path transform="translate(617,492)" d="m0 0 6 1 3 4-1 3-5-2-2-1-2-4z" fill="#EEEBEF"/>
<path transform="translate(387,454)" d="m0 0h2v19l-1 2-2-1v-6l1-3-1-3h2z" fill="#B5CDDC"/>
<path transform="translate(650,231)" d="m0 0h2l5 5-1 3-4 1-3-4-1-2h2z" fill="#3ECCF3"/>
<path transform="translate(731,629)" d="m0 0 2 1v12l-3-1v-11z" fill="#42CDF4"/>
<path transform="translate(772,200)" d="m0 0 10 3 6 3v2l-4-1-12-5z" fill="#6DE9FD"/>
<path transform="translate(390,583)" d="m0 0 3 1v14h-3z" fill="#154888"/>
<path transform="translate(193,361)" d="m0 0 3 1 1 6v3 3 2h-2v-2h-2z" fill="#209DDF"/>
<path transform="translate(259,736)" d="m0 0h1l2 7-4 4h-4l2-6h2z" fill="#1B87CF"/>
<path transform="translate(643,711)" d="m0 0 5 5v3l-5 1-1-7z" fill="#B6DCE8"/>
<path transform="translate(631,233)" d="m0 0 6 5-5 5-2-3v-4z" fill="#3ECCF3"/>
<path transform="translate(591,405)" d="m0 0 2 4-2 2-4-1-4 1 3-5z" fill="#2EB7EA"/>
<path transform="translate(615,199)" d="m0 0h7v4l-1 2-7-3z" fill="#56DDF9"/>
<path transform="translate(248,737)" d="m0 0 2 1-1 4h-2zm-5 2h3l1 4-6 3-2-2 2-2z" fill="#1773C1"/>
<path transform="translate(269,736)" d="m0 0 3 1-1 3h-2zm-2 4 3 1-1 2h-3zm-3 3h2l-1 4-3 1 1-4z" fill="#1A81CB"/>
<path transform="translate(385,683)" d="m0 0 2 1v7l2 3-3 5h-1z" fill="#D0DAE2"/>
<path transform="translate(826,616)" d="m0 0 3 2v9h-3z" fill="#1760AD"/>
<path transform="translate(596,397)" d="m0 0m-1 2 1 2-2-1zm-3 2h2l1 7-3 1-1-3h-3l-1-2 4-1z" fill="#26A8E3"/>
<path transform="translate(448,310)" d="m0 0 3 1-2 4-4 1-1 3-3-3 4-4h2z" fill="#3AC8F2"/>
<path transform="translate(788,310)" d="m0 0 5 2v4h-2l-1 2-2-1v-3h-2v-2h2z" fill="#2BB2E8"/>
<path transform="translate(801,234)" d="m0 0 4 5-2 4-5-5 1-3z" fill="#44D2F6"/>
<path transform="translate(302,719)" d="m0 0 9 1v2h8v1h-10l-8-2z" fill="#D5D9E2"/>
<path transform="translate(388,680)" d="m0 0h1v13l-3-3v-6z" fill="#A1CFE1"/>
<path transform="translate(454,306)" d="m0 0 2 3-1 3-2-3zm4 0 5 1-1 2-3 2-3-3z" fill="#3AC8F1"/>
<path transform="translate(535,275)" d="m0 0 2 1-2 5-3 2-3-2 1-3 5-1z" fill="#3AC8F2"/>
<path transform="translate(681,224)" d="m0 0h5l1 4-3 1-2 2-2-2z" fill="#38C6F0"/>
<path transform="translate(275,727)" d="m0 0 3 1v2h-2l-1 2-1-3zm-5 2h3l1 4-3 3-1-5z" fill="#197EC9"/>
<path transform="translate(383,452)" d="m0 0 3 1-3 7h-3l-1-4h2v-2h2z" fill="#F3F1F4"/>
<path transform="translate(606,476)" d="m0 0 1 2h4l-2 4h-8l2-1 1-2z" fill="#F1EDF1"/>
<path transform="translate(390,344)" d="m0 0h1l-1 8h-2l-1 4h-2l3-10z" fill="#F8F9FB"/>
<path transform="translate(790,208)" d="m0 0 5 2 5 4-1 2-4-2v-2l-4-1-2-2z" fill="#68E6FC"/>
</svg>
